/* XPM */
static char *_1c636fb03404230b5316677ac9ef1c8[] = {
/* columns rows colors chars-per-pixel */
"16 16 164 2 ",
"   c #6C1B6F",
".  c #761864",
"X  c #6F1E72",
"o  c #761E72",
"O  c #76167A",
"+  c #722172",
"@  c #792174",
"#  c #7A2175",
"$  c #7E2275",
"%  c #A70330",
"&  c #A40938",
"*  c #AC0A3C",
"=  c #B81031",
"-  c #B4124B",
";  c #B81549",
":  c #B41A49",
">  c #B90C52",
",  c #BB0D57",
"<  c #BC2250",
"1  c #841C6B",
"2  c #861D6C",
"3  c #871F6D",
"4  c #861671",
"5  c #891079",
"6  c #9F177C",
"7  c #BE1663",
"8  c #B41A65",
"9  c #B81861",
"0  c #BA1D64",
"q  c #BC1E65",
"w  c #A01C77",
"e  c #A11E7C",
"r  c #A31E7F",
"t  c #85226C",
"y  c #812173",
"u  c #802277",
"i  c #862579",
"p  c #922272",
"a  c #96227C",
"s  c #9B2579",
"d  c #9D277A",
"f  c #902A7F",
"g  c #9A287E",
"h  c #A2277D",
"j  c #A62A7F",
"k  c #C61D4C",
"l  c #CB1052",
"z  c #CB1F54",
"x  c #CC2243",
"c  c #C52252",
"v  c #C52355",
"b  c #C92353",
"n  c #C22A54",
"m  c #C22658",
"M  c #C2235F",
"N  c #C7275C",
"B  c #C42859",
"V  c #CE2A5C",
"C  c #D3285B",
"Z  c #D9305A",
"A  c #E32E4D",
"S  c #C01C66",
"D  c #CF2F63",
"F  c #C82866",
"G  c #C22268",
"H  c #C2216A",
"J  c #C1226D",
"K  c #C2236E",
"L  c #C2246F",
"P  c #C4276E",
"I  c #C4286F",
"U  c #C5296F",
"Y  c #C62A6F",
"T  c #D03160",
"R  c #D23966",
"E  c #DC386E",
"W  c #C42970",
"Q  c #C62B70",
"!  c #C72C70",
"~  c #C72E71",
"^  c #C92F71",
"/  c #C92A76",
"(  c #C82C7A",
")  c #C93171",
"_  c #CA3072",
"`  c #CA3473",
"'  c #CD3671",
"]  c #C93274",
"[  c #CD3976",
"{  c #D13F75",
"}  c #CF426C",
"|  c #CD417C",
" . c #D04077",
".. c #D04179",
"X. c #D14279",
"o. c #D54678",
"O. c #D74779",
"+. c #D4467A",
"@. c #D2457C",
"#. c #D2477E",
"$. c #D74A79",
"%. c #D84E7A",
"&. c #DA4C7E",
"*. c #DF5A7C",
"=. c #DE587E",
"-. c #F04064",
";. c #EA4475",
":. c #641784",
">. c #811084",
",. c #8F1781",
"<. c #9A1C80",
"1. c #9F2C84",
"2. c #9E3185",
"3. c #98378B",
"4. c #9A3F93",
"5. c #AE2682",
"6. c #AA2384",
"7. c #A12B83",
"8. c #A62A80",
"9. c #AE2F84",
"0. c #B02F86",
"q. c #B52E87",
"w. c #A33387",
"e. c #A1368B",
"r. c #A03A8A",
"t. c #AB388D",
"y. c #AC398D",
"u. c #A93C8E",
"i. c #BC3188",
"p. c #BD318D",
"a. c #B43297",
"s. c #B23C90",
"d. c #C4318C",
"f. c #C5348D",
"g. c #C43690",
"h. c #B24993",
"j. c #BA5A9D",
"k. c #B464A9",
"l. c #D44D85",
"z. c #D75080",
"x. c #D65084",
"c. c #D75486",
"v. c #D95688",
"b. c #D95789",
"n. c #D8558B",
"m. c #DA5F90",
"M. c #E05A83",
"N. c #DD628E",
"B. c #E36281",
"V. c #E36385",
"C. c #E46085",
"Z. c #E26688",
"A. c #EB6C8C",
"S. c #E36491",
"D. c #E26D96",
"F. c #E06D99",
"G. c #E27099",
"H. c #E57398",
"J. c #E578A0",
"K. c #E77CA2",
"L. c #EE90AE",
"P. c #EF94B2",
"I. c #F197B3",
"U. c None",
/* pixels */
"U.U.U.U.U.U.U.L o.U.U.U.U.U.U.U.",
"U.U.U.U.U.S ] L $.B.=.U.U.U.U.U.",
"U.U.U.J.F.I 7 J %.*.V.} b U.U.U.",
"U.U.' v.P.K.l.Q M.A.C.Z.R C U.U.",
"U.[ .. .G.L.I.n.m n < : T c & U.",
"Q I ! G x.m.G / - % * ; V ;.Z x ",
"! P Q ^ +.#._ ( M = b v N -.E U.",
"_ ` ..+.c.N.G.S.U.U.B k A U.U.>.",
" .x.$.&.D.b.| D U.U.t U.U.U.5 w ",
"9 q U.U.F , > U.,.6 4 y a.p.5.r ",
"8 l U.U.U.U.U.U.<.e 6.h d j 0.0.",
"U.0 O 4.k.U.U.a i.f.g.8.. 1 2 U.",
"U.U.:.r.j.u.e.X $ g q.d.p 2 U.U.",
"U.U.U.3.h.1.s.1.  X # 7.d U.U.U.",
"U.U.U.U.U.w.y.2.o y # U.U.U.U.U.",
"U.U.U.U.U.U.U.t.i U.U.U.U.U.U.U."
};
