/* XPM */
static char *a8c1504a6bc3420cf84b6ac226328e60[] = {
/* columns rows colors chars-per-pixel */
"32 32 166 2 ",
"   c #6D1C6F",
".  c #7B1B66",
"X  c #7F1C69",
"o  c #6D1E70",
"O  c #7F1677",
"+  c #731E72",
"@  c #7E1778",
"#  c #7D197B",
"$  c #7D2275",
"%  c #9A0031",
"&  c #AC0A3B",
"*  c #A80737",
"=  c #B00E3D",
"-  c #B1113D",
";  c #B30F42",
":  c #B7084A",
">  c #AF1141",
",  c #B31544",
"<  c #B71A49",
"1  c #BB1B4B",
"2  c #B5134A",
"3  c #B70550",
"4  c #B10C5B",
"5  c #B90C5D",
"6  c #BF1157",
"7  c #BE1E52",
"8  c #B5125E",
"9  c #BD1459",
"0  c #BE215E",
"q  c #841D6B",
"w  c #8A1F6F",
"e  c #87187E",
"r  c #971676",
"t  c #931C76",
"y  c #971678",
"u  c #9C177C",
"i  c #971A79",
"p  c #9C1B7A",
"a  c #9C1977",
"s  c #B61660",
"d  c #BD1462",
"f  c #BB1C63",
"g  c #A11C7B",
"h  c #84236D",
"j  c #8E216F",
"k  c #822276",
"l  c #8C2071",
"z  c #84237B",
"x  c #8B267B",
"c  c #942375",
"v  c #9C267A",
"b  c #93277B",
"n  c #BE2066",
"m  c #A3217E",
"M  c #A3297E",
"N  c #A9297F",
"B  c #C00A4C",
"V  c #C31C4A",
"C  c #C31A5D",
"Z  c #C41957",
"A  c #D21956",
"S  c #D5234C",
"D  c #C32355",
"F  c #CD2453",
"G  c #C72658",
"H  c #C9275A",
"J  c #CC2959",
"K  c #C22B58",
"L  c #D32B5E",
"P  c #C9355F",
"I  c #C11F69",
"U  c #C3246D",
"Y  c #C62A6F",
"T  c #CC346E",
"R  c #CB3764",
"E  c #D53162",
"W  c #DA3565",
"Q  c #DE396A",
"!  c #C52672",
"~  c #C72D71",
"^  c #C82E71",
"/  c #CA2E7B",
"(  c #CA3474",
")  c #CE3B75",
"_  c #CB3279",
"`  c #CE3F7A",
"'  c #D03E76",
"]  c #D03F78",
"[  c #EE3E62",
"{  c #E23C6B",
"}  c #F5415E",
"|  c #D2436D",
" . c #CF4078",
".. c #D34575",
"X. c #D2437A",
"o. c #D4497C",
"O. c #DC557B",
"+. c #DF5A7D",
"@. c #DA5276",
"#. c #E6406F",
"$. c #FE4A68",
"%. c #ED4574",
"&. c #E25F7F",
"*. c #E2607F",
"=. c #7F0E83",
"-. c #681781",
";. c #752387",
":. c #851283",
">. c #8D1986",
",. c #951C81",
"<. c #A21981",
"1. c #8D2A83",
"2. c #992C81",
"3. c #9B3185",
"4. c #963C90",
"5. c #A32B82",
"6. c #AD2B84",
"7. c #B22E87",
"8. c #B52F89",
"9. c #BA2F8B",
"0. c #A53589",
"q. c #AA368B",
"w. c #AE3A8E",
"e. c #A33689",
"r. c #B63189",
"t. c #BD328C",
"y. c #B13B8F",
"u. c #C1328C",
"i. c #CC3480",
"p. c #C53491",
"a. c #AD4591",
"s. c #AD4B95",
"d. c #B04F97",
"f. c #B3539A",
"g. c #B6599D",
"h. c #B8559A",
"j. c #A758A4",
"k. c #A85DA8",
"l. c #D44C83",
"z. c #D84D80",
"x. c #D65385",
"c. c #D95585",
"v. c #D65488",
"b. c #D95788",
"n. c #DA5C8B",
"m. c #DE5E81",
"M. c #E15D82",
"N. c #DE628E",
"B. c #DE6592",
"V. c #E46486",
"C. c #E4658A",
"Z. c #E8668A",
"A. c #E86A8B",
"S. c #E16691",
"D. c #E16E99",
"F. c #E16892",
"G. c #E2719B",
"H. c #E5789F",
"J. c #E87C9E",
"K. c #E67CA2",
"L. c #E780A3",
"P. c #E982A6",
"I. c #ED8CAC",
"U. c #E983A8",
"Y. c #EF91AE",
"T. c None",
/* pixels */
"T.T.T.T.T.T.T.T.T.T.T.T.T.T.T.U ( T.T.T.T.T.T.T.T.T.T.T.T.T.T.T.",
"T.T.T.T.T.T.T.T.T.T.T.T.T.~ ~ U ( V.O.T.T.T.T.T.T.T.T.T.T.T.T.T.",
"T.T.T.T.T.T.T.T.T.T.T.~ ~ ~ ~ U ) V.O.O.V.T.T.T.T.T.T.T.T.T.T.T.",
"T.T.T.T.T.T.T.T.T.I ( ~ ~ ~ ~ U ) *.O.O.O.M.D T.T.T.T.T.T.T.T.T.",
"T.T.T.T.T.T.T.P.B.U d Y ( ~ ! U ..&.O.O.O.V.M.; T.T.T.T.T.T.T.T.",
"T.T.T.T.T.T.B.K.L.U.l.I f ^ ( U ..&.O.O.O.@.V.| 2 { T.T.T.T.T.T.",
"T.T.T.T.X.( X.U.G.K.I.G._ d U ! X.&.O.O.O.O.c.Z.P L #.%.T.T.T.T.",
"T.T.T.X.X.X.T N.U.D.D.P.Y.n.U d O.A.V.Z.Z.V.M.Z.M.L F J 1 T.T.T.",
"T.T.X.o.o. . .X.K.H.G.D.D.I.Y.v.| @.| R P K K < < W V % > < T.T.",
"T.! ~ )  .o.o.T n.P.G.L.I.H.n.l.2 * = & = = & = 1 E %.J & > 1 T.",
"~ ~ ! Y U ^ ) ' ' K.I.D.l.Y d ! C = < < < 2 , H D L { #.E > & & ",
"~ ~ ~ ~ ~ ~ U U U x.l.5 d ! ( _ ^ - , < , , G G 7 E { E #.Q D K ",
"~ ~ ~ ~ ~ ! U ^ ( o.l. .^ n Y ( _ , , , , G G D V E { W E [ $.T.",
"^ ^ ~ Y U ^  ...o.n.b.N.N.X.! n / 7 - , G G D D 7 W { W } T.T.T.",
"^ Y Y ^ ) o.o.' z.n.x.x.b.N.n. .i.T.T.F J D D D 7 E { [ T.T.:.>.",
"^ ^ ( X.o.X. . .b.b.b.x.x.b.B.J.T.T.T.T.T.D F S V T.T.T.:.p g p ",
"o.o.o.X.] X.) l.n.x.b.N.F.B.l.( 9 T.T.T.T.T.T.T.T.T.T.:.p p p T.",
"..X.o.o.X...) b.B.S.B.l.( f 4 B T.T.g p h h k + T.T.T.r r p p T.",
"s s I T l.T.T.S.x.) n 4 4 8 C T.T.p p <.i h j q 5.T.8.6.p r y T.",
"f s 8 4 f T.T.T.3 : 8 f f 0 f T.,.p p p <.t . v p.7.7.r.r.6.m T.",
"f f n f Z T.T.T.T.T.6 9 n C T.>.a a y y y g t 6.t.8.8.t.t.u.u.t.",
"f s f C T.T.4.g.j.T.T.T.T.T.T.a a m m 6.6.8.u.w X l c c v v 5.5.",
"T.f f A T.-.3.h.a.s.k.T.T.T.T.u.r.r.r.r.8.8.t.c . w q q q q T.T.",
"T.T.C T.T.O 1.g.s.s.s.s.T.T.+ 2.7.u.9.6.6.6.9.5.q w l l l c T.T.",
"T.T.T.T.;.@ 1.d.s.s.f.e.0.e.  o $ b 7.u.t.6.7.6.w w l l j T.T.T.",
"T.T.T.T.1.# 1.s.f.f.e.e.0.w.x + $ + o x 5.u.u.t.c q l l T.T.T.T.",
"T.T.T.T.T.T.# s.g.e.5.0.e.y.2.  $ z $ + + k 5.p.5.q T.T.T.T.T.T.",
"T.T.T.T.T.T.T.T.a.5.0.0.0.q.w.$ $ $ $ k k + o z T.T.T.T.T.T.T.T.",
"T.T.T.T.T.T.T.T.T.0.0.0.0.e.y.x o k $ $ $ k k T.T.T.T.T.T.T.T.T.",
"T.T.T.T.T.T.T.T.T.T.T.0.0.e.w.3.+ $ $ k $ T.T.T.T.T.T.T.T.T.T.T.",
"T.T.T.T.T.T.T.T.T.T.T.T.T.0.q.q.z $ $ T.T.T.T.T.T.T.T.T.T.T.T.T.",
"T.T.T.T.T.T.T.T.T.T.T.T.T.T.T.a.b T.T.T.T.T.T.T.T.T.T.T.T.T.T.T."
};
