/* XPM */
static char *_d51205d6ab2406ed0cbcc82c8b35d14[] = {
/* columns rows colors chars-per-pixel */
"64 64 175 2 ",
"   c #791C69",
".  c #6D1E71",
"X  c #741E71",
"o  c #781F73",
"O  c #7B1779",
"+  c #7D197A",
"@  c #77177A",
"#  c #742073",
"$  c #7E2276",
"%  c #AC0B3C",
"&  c #A60737",
"*  c #B10F3D",
"=  c #AD103F",
"-  c #B2123D",
";  c #AE0F40",
":  c #B60E44",
">  c #AF1141",
",  c #B51645",
"<  c #BA1247",
"1  c #B61847",
"2  c #B71748",
"3  c #BE154A",
"4  c #B71848",
"5  c #BB1B4C",
"6  c #B30D5A",
"7  c #BE0E55",
"8  c #BE1E51",
"9  c #B5125D",
"0  c #BE1C5C",
"q  c #BB125B",
"w  c #BD2150",
"e  c #841D6C",
"r  c #891F6E",
"t  c #821D7C",
"y  c #8B1F70",
"u  c #961677",
"i  c #961779",
"p  c #981778",
"a  c #971879",
"s  c #9C1B7B",
"d  c #951976",
"f  c #B71661",
"g  c #BC1462",
"h  c #BA1B63",
"j  c #B71B64",
"k  c #A11A7E",
"l  c #A2177E",
"z  c #86226D",
"x  c #8A216E",
"c  c #812277",
"v  c #8C2070",
"b  c #84217D",
"n  c #89257B",
"m  c #8A287C",
"M  c #932274",
"N  c #91277D",
"B  c #9D257B",
"V  c #902B7E",
"C  c #BE2167",
"Z  c #A4237F",
"A  c #A32A7E",
"S  c #C01F51",
"D  c #C21B5D",
"F  c #C91A5B",
"G  c #CE234F",
"H  c #D0234F",
"J  c #C42355",
"K  c #CA2354",
"L  c #C2245D",
"P  c #C9275A",
"I  c #CB2A5B",
"U  c #C22B57",
"Y  c #D12D5E",
"T  c #D02457",
"R  c #C7315E",
"E  c #C01B65",
"W  c #C11E69",
"Q  c #C3246D",
"!  c #C5296E",
"~  c #C22666",
"^  c #D42F60",
"/  c #CB326D",
"(  c #CF3D6C",
")  c #C93667",
"_  c #DB3666",
"`  c #DE3866",
"'  c #DE3968",
"]  c #DF3768",
"[  c #C32570",
"{  c #C72D71",
"}  c #C82E72",
"|  c #C73473",
" . c #CA3374",
".. c #CE3B75",
"X. c #CB3179",
"o. c #CE3C78",
"O. c #D03E76",
"+. c #D13F79",
"@. c #E43A63",
"#. c #E23B6B",
"$. c #E93D66",
"%. c #D3436E",
"&. c #CF4078",
"*. c #D24177",
"=. c #D74D72",
"-. c #D1437A",
";. c #D5497C",
":. c #D84D7D",
">. c #D84D75",
",. c #DD567C",
"<. c #DF597D",
"1. c #EB4272",
"2. c #E74070",
"3. c #E15D7E",
"4. c #E2607F",
"5. c #7F2181",
"6. c #941A81",
"7. c #A31A81",
"8. c #8C2982",
"9. c #9A2C82",
"0. c #942D81",
"q. c #993387",
"w. c #A32C83",
"e. c #AD2C84",
"r. c #A82682",
"t. c #B12D86",
"y. c #B52F89",
"u. c #BA2F89",
"i. c #A33287",
"p. c #A53589",
"a. c #A8368A",
"s. c #A4398B",
"d. c #AD398D",
"f. c #B33087",
"g. c #B63189",
"h. c #BA308B",
"j. c #B13B8F",
"k. c #B23C90",
"l. c #C3328C",
"z. c #C33391",
"x. c #A3418F",
"c. c #A94592",
"v. c #AD4B95",
"b. c #AC4E99",
"n. c #B14F97",
"m. c #B14F98",
"M. c #AE5199",
"N. c #AE5097",
"B. c #B35399",
"V. c #D44C82",
"C. c #D64F8A",
"Z. c #D75385",
"A. c #D85687",
"S. c #D95788",
"D. c #DA5B8B",
"F. c #DF5A80",
"G. c #DB5F91",
"H. c #E15C82",
"J. c #DE628E",
"K. c #DD6391",
"L. c #E46286",
"P. c #E4668A",
"I. c #E86B8B",
"U. c #E06690",
"Y. c #E16B96",
"T. c #E16E99",
"R. c #E3739C",
"E. c #E5789F",
"W. c #E67CA2",
"Q. c #E87EA3",
"!. c #E982A6",
"~. c #EB86A9",
"^. c #ED8AAB",
"/. c #F297B3",
"(. c None",
/* pixels */
"(.(.(.(.(.(.(.(.(.(.(.(.(.(.(.(.(.(.(.(.(.(.(.(.(.(.(.(.(.(.} { [ o.(.(.(.(.(.(.(.(.(.(.(.(.(.(.(.(.(.(.(.(.(.(.(.(.(.(.(.(.(.(.",
"(.(.(.(.(.(.(.(.(.(.(.(.(.(.(.(.(.(.(.(.(.(.(.(.(.(.(.(.} { { { [ O.4.<.(.(.(.(.(.(.(.(.(.(.(.(.(.(.(.(.(.(.(.(.(.(.(.(.(.(.(.(.",
"(.(.(.(.(.(.(.(.(.(.(.(.(.(.(.(.(.(.(.(.(.(.(.(.(.(.} { } { } { [ *.4.,.,.,.(.(.(.(.(.(.(.(.(.(.(.(.(.(.(.(.(.(.(.(.(.(.(.(.(.(.",
"(.(.(.(.(.(.(.(.(.(.(.(.(.(.(.(.(.(.(.(.(.(.(.(.{ { } { } } ! { [ *.4.,.,.,.,.(.(.(.(.(.(.(.(.(.(.(.(.(.(.(.(.(.(.(.(.(.(.(.(.(.",
"(.(.(.(.(.(.(.(.(.(.(.(.(.(.(.(.(.(.(.(.(.(.(.{ { { { { { } } { [ ;.L.,.,.,.,.,.,.(.(.(.(.(.(.(.(.(.(.(.(.(.(.(.(.(.(.(.(.(.(.(.",
"(.(.(.(.(.(.(.(.(.(.(.(.(.(.(.(.(.(.(.(.(.} } { { { { { { { } ! [ >.3.,.<.,.,.,.,.H.P.(.(.(.(.(.(.(.(.(.(.(.(.(.(.(.(.(.(.(.(.(.",
"(.(.(.(.(.(.(.(.(.(.(.(.(.(.(.(.(.(.(.{ { { } { } { { { { } { ! ! :.3.,.,.,.<.,.,.,.L.>.< (.(.(.(.(.(.(.(.(.(.(.(.(.(.(.(.(.(.(.",
"(.(.(.(.(.(.(.(.(.(.(.(.(.(.(.(.(.(. .{ { { { { { { { } { { { ! ! ,.3.,.<.,.,.,.,.,.,.I.%.< (.(.(.(.(.(.(.(.(.(.(.(.(.(.(.(.(.(.",
"(.(.(.(.(.(.(.(.(.(.(.(.(.(.(.(.G.[ E ! { } } } { { { { { } } ! ! ,.3.,.,.,.,.,.,.,.,.F.I.I < J (.(.(.(.(.(.(.(.(.(.(.(.(.(.(.(.",
"(.(.(.(.(.(.(.(.(.(.(.(.(.(.R.R.!.W.V.E E ! } { { } { { { { { ! { <.<.,.,.,.,.,.,.,.,.,.H.L.J 3 J Y (.(.(.(.(.(.(.(.(.(.(.(.(.(.",
"(.(.(.(.(.(.(.(.(.(.(.(.K.!.R.R.T.Q.^.T.} g W } | { { { { { { [ } <.<.,.,.3.,.,.,.,.,.,.,.L.,.3 5 P #.' (.(.(.(.(.(.(.(.(.(.(.(.",
"(.(.(.(.(.(.(.(.(.(.(. .-.Q.W.R.E.T.R.~.~.G.[ g Q X.} { } { { [ } 3.,.,.,.,.,.,.,.,.,.,.,.>.I.%.< J ' ] _ (.(.(.(.(.(.(.(.(.(.(.",
"(.(.(.(.(.(.(.(.(.-.-.-./ D.!.R.R.R.R.T.E.^.W.V.h E }  .} } } [  .4.,.,.,.,.,.,.,.,.,.,.,.,.,.I.R < ' ] _ _ _ (.(.(.(.(.(.(.(.(.",
"(.(.(.(.(.(.(.-.-.-.-.-.....E.E.R.R.R.R.T.T.Q.^.T. .g W  .} { [ ..3.,.,.,.,.,.,.,.,.,.,.,.,.,.H.H.8 T #._ _ _ #.1.(.(.(.(.(.(.(.",
"(.(.(.(.(.(.-.+.-.-.-.-.-./ D.Q.R.R.R.R.R.R.T.E.!.!.D.[ g } } [ ..3.,.,.,.,.,.,.,.,.,.,.,.,.,.,.P.:.S #.2.#.#._ Y S (.(.(.(.(.(.",
"(.(.(.(.(.-.&.-.-.-.-.-.-.....R.Q.R.R.R.R.R.R.R.R.W.~.W.V.W E [ *.3.,.,.3.,.H.H.H.L.L.L.L.L.L.H.3.L.%.T K J 3 > = , 2 (.(.(.(.(.",
"(.(.(.(.(.-.-.-.-.-.-.-.-.-...Z.Q.R.R.R.R.R.R.R.R.R.T.!.~.Y.X.h %.I.L.L.L.L.L.3.,.,.=.%.( ) U U w 2 I ^ % & > , , 1 2 (.(.(.(.(.",
"(.(.(.(.-.;.;.-.-.&.-.&.-.-.*...Y.W.Y.R.R.R.R.R.R.R.T.T.R.~./.G.( =.%.) R U w 5 , > * * * % * % % 2 K 2.#.1 % , 4 1 1 4 (.(.(.(.",
"(.(.(.(.}  .O.-.;.;.-.&.-.-.-. .V.~.R.R.R.R.R.R.T.R.W.!.^.E.D.C.D & % % % & % * * , , , 1 4 2 2 w P J ' #.1.U & ; 1 1 4 (.(.(.(.",
"(.(.(.{ ! ! ! }  .&.;.;.-.-.-.O./ Y.!.R.R.R.R.R.W.^.~.T.V.! g [ L * , 4 3 , 4 4 1 3 4 4 4 , > S P w P ] _ ' 1.^ ; = 4 4 2 (.(.(.",
"(.(.{ { } { { ! [ ! { ..-.-.-.V...-.!.R.Y.E.!.~.Q.D.o.E g Q { X.X.2 - 2 2 , 1 1 2 2 2 1 , > 8 P J w P ] ] _ _ 1.' 4 & 1 5 4 (.(.",
"(.(.{ } } } { { { { ! ! !  ...&.-...Y.~.~.~.Y.V.{ h E ! { | } } X.8 - 2 2 1 2 , 2 2 2 , > 8 P J J J K #._ _ _ _ 2.2.J % % % (.(.",
"(.(.{ { { } { { { { { { { ! [ ! } / -.W.K. .Q h Q ! } } { { { { X.L - 2 , 1 2 2 1 1 2 - 5 I P J J 8 P #._ _ _ _ _ #.1.Y 4 4 (.(.",
"(.(.{ { { { { { { { { { { { } ! Q Q  .Z.! g W ! } } { { { { { ! } ! - , 2 2 2 2 1 1 > 5 P J J J J 8 P #.' _ _ _ _ _ ] #.#.#.(.(.",
"(.(.{ { { { { { { } { } { { ! !  ...;.D.D.V. .[ Q ! { { { { { /  .} , > 3 2 , 4 2 > 5 I J J J J J 8 P @.] _ _ _ _ _ _ _ ] ] (.(.",
"(.(.{ { { { } { { { } { ! ! { -.-.*.Z.D.D.D.J.Z. .! Q ! } { { { } X.8 - 4 2 2 2 > 8 P J J J J J J 8 I #.] _ _ _ ' _ _ @.@.(.(.(.",
"(.(.} { { { { { { { ! ! { +.-.;.&.-.D.S.A.Z.Z.J.U.Z. .Q W ! } } { X.L - 2 2 2 > 5 I J J J J J J J 8 I #.' _ _ ' _ _ @.(.(.(.(.(.",
"(.(.{ { { { { { ! [ ! ..;.;.-.&.O.V.D.Z.Z.D.Z.Z.A.D.J.Z. .Q Q ! } X.! > 2 4 > 5 P J J J J J J J J 8 I #.' _ _ _ _ @.(.(.(.(.(.(.",
"(.(.{ { { } { ! !  .-.V.-.-.-.O.*.D.A.A.A.A.A.S.A.Z.S.J.K.A. .Q Q  .(.(.(.(.5 P J J J J J J J J J 8 I #.' _ _ _ (.(.(.(.s s (.(.",
"(.(.} } ! ! ! X.&.;.-.-.-.-.-...V.D.A.A.A.A.A.A.A.A.Z.Z.A.J.J.A. .(.(.(.(.(.(.P J J J J J J J J J S Y #._ _ ' (.(.(.(.B s k (.(.",
"(.(.! ! ! } &.;.;.-.-.+.-.-.-.-.Z.D.A.A.A.A.S.A.A.A.A.A.Z.Z.D.J.S.(.(.(.(.(.(.K K K K J J J J J J S Y #._ @.(.(.(.i s s s s (.(.",
"(.(. . ...;.-.-.-.&.-.-.-.-.O.-.D.A.A.A.A.A.A.A.A.A.A.A.Z.D.D.J.D.(.(.(.(.(.(.(.(.(.(.K G G K K J (.(.(.(.(.(.(.s s s s s s (.(.",
"(.(.-.-.-.-.-.&.-.&.-.-.-.*.O.Z.D.S.S.S.S.S.S.Z.Z.S.S.H.D.U.J.V.{ (.(.(.(.(.(.(.(.(.(.(.(.(.(.(.(.(.(.(.(.(.(.s s s s s s s (.(.",
"(.(.-.-.*.-.-.-.-.*.-.&.-.O.-.D.S.A.A.S.Z.Z.A.D.D.J.K.D.V. .h 6 9 (.(.(.(.(.v z v z (.(.(.(.(.(.(.(.(.(.(.(.s s s s s s s s (.(.",
"(.(.;.;.-.-.&.-.-.-.-.-.&.O.V.D.A.A.A.Z.S.D.J.U.J.V.| h 9 6 9 h (.(.(.s s s s z x v v v v v x (.(.(.(.(.(.(.s s s s s s s s (.(.",
"(.(.-.-.:.V.;.-.&.&.-.*.&.&.A.S.Z.Z.D.U.U.J.V.| j 9 6 9 f h j E (.(.s s s s k s x v v v v v v r (.(.(.(.(.(.u a s k s s s s (.(.",
"(.(.h f C ..-.:.:.-.-.(.(.(.D.D.J.J.J.Z. .C 6 6 9 0 j C j h h (.(.(.k s s s s 7.s z z v v y y e M (.(.(.(.f.r.s p d s s k s (.(.",
"(.(.f 9 9 6 h ! ..;.(.(.(.(.(.J.Z...C 9 6 6 f h h h j h h h (.(.(.s s s s s s s k s z v v y y e r.f.e.e.y.f.f.f.e.k i d s s (.(.",
"(.(.h h h h 9 9 9 (.(.(.(.(.(. .9 6 9 9 h h j j h h h h h D (.(.s s s s s s s s s k s z v M e M g.t.t.y.t.e.t.y.f.f.e.k d s (.(.",
"(.(.h h j h j h f (.(.(.(.(.(.(.q f C h h h h h h h h h h (.(.(.s s s s s s s s s s k d x e r f.h.t.t.e.e.y.e.y.t.y.f.f.t.t.(.(.",
"(.(.h h h h h h h (.(.(.(.(.(.(.(.h q h h h h h h h h h (.(.(.s s s s s k s s s s s s l d   A l.u.y.f.f.t.t.f.f.t.e.y.t.t.f.(.(.",
"(.(.h h h h h h h h (.(.(.(.(.(.(.(.(.(.7 h h h h h h D (.(.6.s s s s s s p p p p i i s k Z A t.e.t.f.f.g.u.h.g.g.u.y.y.y.t.(.(.",
"(.(.h h h h h f h (.(.(.(.(.m.v.M.(.(.(.(.(.7 f E (.(.(.(.i s s a a i i p p s Z r.r.e.e.g.h.e e r v v M B Z Z r.e.t.y.f.h.h.(.(.",
"(.(.h h h h h j F (.(.@ n M.m.v.v.b.b.(.(.(.(.(.(.(.(.(.(.s i a s k r.r.e.f.y.f.f.y.f.y.f.h.M   r e e e e e e e r r v M M M (.(.",
"(.(.h h h h h 0 (.(.(.t b n.B.v.v.v.v.v.N.b.(.(.(.(.(.(.(.Z A t.f.f.g.g.g.g.t.f.y.t.e.t.e.h.w.e y v v v v y y r r r e e e (.(.(.",
"(.(.(.h h h h (.(.(.b t t c.B.v.v.v.v.v.v.v.N.(.(.(.(.(.(.(.l.u.f.f.t.t.t.t.e.t.t.t.t.t.y.h.y.r r y v v v v v v y v v v (.(.(.(.",
"(.(.(.(.h h E (.(.8.b t O s.B.v.v.v.v.v.v.v.v.(.(.(.(.(.(.N t.u.u.t.t.t.t.t.t.t.t.t.e.t.e.y.y.M e v v v v z v v y v v v (.(.(.(.",
"(.(.(.(.(.h (.(.(.b b b O s.B.v.v.v.v.v.v.v.M.c.(.(.(.(.(.# # n w.u.h.u.t.t.t.t.t.t.y.e.e.t.u.B e v v y v v v v v v v (.(.(.(.(.",
"(.(.(.(.(.(.(.(.b t + t O q.B.b.v.v.v.c.v.N.c.p.i.(.(.0.X $ # X # n A g.h.u.t.e.e.t.t.t.t.t.g.r.r y v v v v v v v v (.(.(.(.(.(.",
"(.(.(.(.(.(.(.5.t 8.8.+ O 0.B.m.v.v.v.v.M.v.i.p.a.p.d.p.o X c c $ # . $ B y.h.u.f.t.t.t.t.e.y.t.v y v v v z v v v v (.(.(.(.(.(.",
"(.(.(.(.(.(.(.b t 8.+ 8.O 8.B.m.v.v.v.M.n.w.i.p.p.p.a.j.n X $ $ $ c c X . # 8.y.h.h.u.e.e.t.y.y.M e v v v v v v (.(.(.(.(.(.(.(.",
"(.(.(.(.(.(.(.(.(.b 8.t O 8.m.m.v.n.N.n.i.i.p.p.p.p.p.j.q.X $ c $ $ $ c $ $ . X v e.h.l.g.e.e.u.A e v v v v v (.(.(.(.(.(.(.(.(.",
"(.(.(.(.(.(.(.(.(.(.(.8.O t v.b.c.M.N.i.w.a.p.p.p.p.p.a.d.$ X $ $ $ $ c $ c c $ X . $ w.u.h.u.u.e.y z v v (.(.(.(.(.(.(.(.(.(.(.",
"(.(.(.(.(.(.(.(.(.(.(.(.t 8.c.m.N.N.p.w.s.p.p.p.p.p.p.p.d.V X $ $ $ $ $ $ c $ c $ $ X . $ 9.f.l.l.M e (.(.(.(.(.(.(.(.(.(.(.(.(.",
"(.(.(.(.(.(.(.(.(.(.(.(.(.(.c.B.b.p.w.a.p.p.a.p.p.p.p.i.d.i.# $ $ c $ $ $ $ $ $ $ $ $ $ X X # N y.Z (.(.(.(.(.(.(.(.(.(.(.(.(.(.",
"(.(.(.(.(.(.(.(.(.(.(.(.(.(.(.(.s.i.s.p.p.p.p.p.p.p.p.p.d.d.n X c $ $ $ $ $ $ c $ $ $ $ c $ $ . (.(.(.(.(.(.(.(.(.(.(.(.(.(.(.(.",
"(.(.(.(.(.(.(.(.(.(.(.(.(.(.(.(.(.(.p.p.p.p.p.p.p.p.p.p.p.j.V X $ $ $ $ $ $ $ c $ $ $ $ c $ (.(.(.(.(.(.(.(.(.(.(.(.(.(.(.(.(.(.",
"(.(.(.(.(.(.(.(.(.(.(.(.(.(.(.(.(.(.(.p.p.p.p.p.p.p.p.p.i.d.a.$ $ $ c $ $ $ $ $ $ c $ $ $ (.(.(.(.(.(.(.(.(.(.(.(.(.(.(.(.(.(.(.",
"(.(.(.(.(.(.(.(.(.(.(.(.(.(.(.(.(.(.(.(.(.p.p.p.p.p.p.p.p.p.d.m # $ $ $ $ c $ $ $ $ $ (.(.(.(.(.(.(.(.(.(.(.(.(.(.(.(.(.(.(.(.(.",
"(.(.(.(.(.(.(.(.(.(.(.(.(.(.(.(.(.(.(.(.(.(.(.p.p.p.p.p.p.i.d.q.X $ $ $ $ $ $ $ $ (.(.(.(.(.(.(.(.(.(.(.(.(.(.(.(.(.(.(.(.(.(.(.",
"(.(.(.(.(.(.(.(.(.(.(.(.(.(.(.(.(.(.(.(.(.(.(.(.(.p.p.a.p.p.a.a.c $ $ $ $ $ c (.(.(.(.(.(.(.(.(.(.(.(.(.(.(.(.(.(.(.(.(.(.(.(.(.",
"(.(.(.(.(.(.(.(.(.(.(.(.(.(.(.(.(.(.(.(.(.(.(.(.(.(.p.p.p.p.p.d.V # c $ $ $ (.(.(.(.(.(.(.(.(.(.(.(.(.(.(.(.(.(.(.(.(.(.(.(.(.(.",
"(.(.(.(.(.(.(.(.(.(.(.(.(.(.(.(.(.(.(.(.(.(.(.(.(.(.(.(.p.p.a.d.i.# $ $ (.(.(.(.(.(.(.(.(.(.(.(.(.(.(.(.(.(.(.(.(.(.(.(.(.(.(.(.",
"(.(.(.(.(.(.(.(.(.(.(.(.(.(.(.(.(.(.(.(.(.(.(.(.(.(.(.(.(.(.p.a.d.c (.(.(.(.(.(.(.(.(.(.(.(.(.(.(.(.(.(.(.(.(.(.(.(.(.(.(.(.(.(."
};
